<svg xmlns="http://www.w3.org/2000/svg" width="1600" height="520" viewBox="0 0 1600 520">
<defs><linearGradient id="g" x1="0" x2="1"><stop stop-color="#eef6ff"/><stop offset="1" stop-color="#d8eaff"/></linearGradient><linearGradient id="glass" x1="0" y1="0" x2="1" y2="1"><stop stop-color="#ffffff" stop-opacity=".95"/><stop offset="1" stop-color="#d7e7f8" stop-opacity=".78"/></linearGradient></defs>
<rect width="1600" height="520" fill="url(#g)"/><rect x="820" y="40" width="690" height="400" rx="18" fill="#f7fbff" stroke="#c7daee"/><rect x="860" y="80" width="220" height="150" rx="6" fill="url(#glass)"/><rect x="1100" y="80" width="370" height="150" rx="6" fill="url(#glass)"/><rect x="860" y="250" width="610" height="150" rx="6" fill="#fff" stroke="#d7e4f1"/><path d="M900 365h520M980 250v150M1240 250v150" stroke="#dbe7f2" stroke-width="4"/><rect x="940" y="305" width="145" height="42" rx="8" fill="#0d62db" opacity=".95"/><rect x="1130" y="300" width="220" height="12" rx="6" fill="#b7cade"/><rect x="1130" y="326" width="170" height="10" rx="5" fill="#d0deeb"/><circle cx="1440" cy="355" r="42" fill="#5fa867"/><rect x="1434" y="385" width="12" height="45" rx="4" fill="#8a6d49"/><circle cx="1045" cy="205" r="34" fill="#6aac73"/><rect x="1040" y="230" width="10" height="35" fill="#8b7054"/><path d="M0 450C260 390 420 500 680 450s460-120 920-35v105H0z" fill="#cfe4f8" opacity=".55"/></svg>