<svg xmlns="http://www.w3.org/2000/svg" width="1600" height="560" viewBox="0 0 1600 560"><defs><linearGradient id="sky" x1="0" y1="0" x2="0" y2="1"><stop stop-color="#dff2ff"/><stop offset="1" stop-color="#b9dcf7"/></linearGradient><linearGradient id="cam" x1="0" y1="0" x2="1" y2="1"><stop stop-color="#f7fbff"/><stop offset="1" stop-color="#cad8e5"/></linearGradient></defs><rect width="1600" height="560" fill="url(#sky)"/><g opacity=".48" fill="#7da8c9"><rect x="800" y="290" width="95" height="200"/><rect x="915" y="230" width="110" height="260"/><rect x="1045" y="315" width="80" height="175"/><rect x="1140" y="180" width="120" height="310"/><rect x="1280" y="260" width="90" height="230"/><rect x="1385" y="210" width="140" height="280"/></g><rect x="1450" width="150" height="560" fill="#d6dee6"/><path d="M1450 0v560" stroke="#bcc7d0" stroke-width="6"/><g transform="translate(980 60) rotate(-4)"><rect x="0" y="0" width="360" height="150" rx="38" fill="url(#cam)" stroke="#b9c8d5" stroke-width="5"/><rect x="34" y="42" width="130" height="92" rx="20" fill="#263544"/><circle cx="98" cy="88" r="36" fill="#07121c" stroke="#6ba5d7" stroke-width="10"/><circle cx="98" cy="88" r="15" fill="#1d9bf0"/><rect x="205" y="52" width="105" height="14" rx="7" fill="#aebdcc"/><path d="M285 150l55 85 65 0" fill="none" stroke="#9aaab9" stroke-width="30" stroke-linecap="round"/><circle cx="420" cy="235" r="44" fill="#d6e0e8" stroke="#9baab7" stroke-width="8"/></g><path d="M0 500C280 445 560 530 830 488c260-40 510-20 770 26v46H0z" fill="#a8cee9" opacity=".55"/></svg>